<?xml version="1.0" encoding="UTF-8"?> <svg xmlns="http://www.w3.org/2000/svg" viewBox="0 0 212.95 40.02"><defs><style>.cls-1{fill:#ffcf0e;}.cls-2{fill:#fff;}</style></defs><title>logotipo-conectaweb-diseño-web-arequipa-white_1</title><g id="Capa_2" data-name="Capa 2"><g id="Capa_1-2" data-name="Capa 1"><path class="cls-1" d="M10.39,20.79a8.25,8.25,0,1,1,8.22,8.37A8.32,8.32,0,0,1,10.39,20.79Z"></path><path class="cls-1" d="M29.36,5.31a5.2,5.2,0,1,1-10.4,0,5.2,5.2,0,1,1,10.4,0Z"></path><path class="cls-1" d="M36.43,20.8A18.38,18.38,0,0,1,32,32.66c-.34.41-.56.57-.84-.07A4.56,4.56,0,0,0,30,31c-.33-.29-.35-.48-.05-.85A14.37,14.37,0,0,0,33,23.39a14.7,14.7,0,0,0-3.27-12.23c-.38-.47-.44-.75,0-1.18a4.81,4.81,0,0,0,1-1.59c.19-.5.38-.46.72-.1a17.89,17.89,0,0,1,4.36,7.88A19.94,19.94,0,0,1,36.43,20.8Z"></path><path class="cls-1" d="M3.16,20a3.43,3.43,0,0,0-1.56.18c-.7.3-.75-.05-.7-.6a18.06,18.06,0,0,1,2.38-7.85,17.64,17.64,0,0,1,13-8.83c.17,0,.35,0,.52-.05.5-.08.54.14.4.55A4.37,4.37,0,0,0,17,5.25c.07.64-.23.8-.78.9A14,14,0,0,0,7.8,10.8a14.32,14.32,0,0,0-3.67,8.25C4.05,19.82,3.85,20.23,3.16,20Z"></path><path class="cls-1" d="M29.84,35.67A4.3,4.3,0,0,1,25.51,40a4.44,4.44,0,0,1-4.25-4.33,4.34,4.34,0,0,1,4.38-4.39A4.23,4.23,0,0,1,29.84,35.67Z"></path><path class="cls-1" d="M18.45,38.82a17.73,17.73,0,0,1-14.61-8c-.36-.53-.34-.75.36-.85a3.14,3.14,0,0,0,1.62-.75c.4-.35.58-.25.86.15a14.42,14.42,0,0,0,8.89,6,15.77,15.77,0,0,0,3.06.35c.42,0,.63.09.64.58a4.4,4.4,0,0,0,.45,1.88c.25.52.16.75-.44.71Z"></path><path class="cls-1" d="M2.93,28A3,3,0,0,1,0,25a3.09,3.09,0,0,1,3.05-3A3.1,3.1,0,0,1,6,25.05,3,3,0,0,1,2.93,28Z"></path><path class="cls-2" d="M51.37,27.33A9.89,9.89,0,0,1,48.67,20a10.09,10.09,0,0,1,2.65-7.35A9.57,9.57,0,0,1,58.53,10a10.13,10.13,0,0,1,6.32,2A8.45,8.45,0,0,1,68,17.55H62.5a3.83,3.83,0,0,0-1.43-2.2,4.21,4.21,0,0,0-2.54-.77A3.73,3.73,0,0,0,55.37,16a6.46,6.46,0,0,0-1.08,4,6.51,6.51,0,0,0,1.08,4,3.75,3.75,0,0,0,3.16,1.4,4.09,4.09,0,0,0,2.69-.88,4,4,0,0,0,1.36-2.47H68A8.48,8.48,0,0,1,65,28a9.84,9.84,0,0,1-6.43,2.11A9.56,9.56,0,0,1,51.37,27.33Z"></path><path class="cls-2" d="M76.57,30a7.52,7.52,0,0,1-5.48-2,7.11,7.11,0,0,1-2-5.29,7.08,7.08,0,0,1,2-5.32,7.44,7.44,0,0,1,5.48-2,7.44,7.44,0,0,1,5.48,2,7.09,7.09,0,0,1,2,5.32,7.07,7.07,0,0,1-2,5.29A7.51,7.51,0,0,1,76.57,30Zm0-3.89c1.68,0,2.51-1.13,2.51-3.4s-.83-3.41-2.51-3.41-2.51,1.14-2.51,3.41S74.9,26.06,76.57,26.06Z"></path><path class="cls-2" d="M98.4,16.73a5.35,5.35,0,0,1,1.32,3.88v9h-5v-8c0-1.39-.63-2.08-1.89-2.08a2.15,2.15,0,0,0-1.57.61,2.28,2.28,0,0,0-.62,1.71v7.73h-5V15.69h4.86v1.84a5.27,5.27,0,0,1,4.35-2.17A4.66,4.66,0,0,1,98.4,16.73Z"></path><path class="cls-2" d="M116.28,24.09H106.07a2.6,2.6,0,0,0,2.78,2.35,2.65,2.65,0,0,0,2.46-1.22H116a5.59,5.59,0,0,1-2.51,3.49A8.39,8.39,0,0,1,108.85,30a7.53,7.53,0,0,1-5.43-2,7,7,0,0,1-2.08-5.29,7,7,0,0,1,2-5.3,7.43,7.43,0,0,1,5.41-2,7.34,7.34,0,0,1,5.42,2.08,7.85,7.85,0,0,1,2.06,5.76Zm-10.21-2.94h5.43a2.57,2.57,0,0,0-2.76-2.27A2.5,2.5,0,0,0,106.07,21.15Z"></path><path class="cls-2" d="M119.52,28a7.11,7.11,0,0,1-2-5.29,7.08,7.08,0,0,1,2-5.32,7.27,7.27,0,0,1,5.4-2,7.55,7.55,0,0,1,4.92,1.56,5.92,5.92,0,0,1,2.19,4.2h-4.89a2,2,0,0,0-2.22-1.78c-1.62,0-2.43,1.1-2.43,3.32S123.3,26,124.92,26a2,2,0,0,0,2.32-2.05h4.87A5.89,5.89,0,0,1,130,28.3,7.66,7.66,0,0,1,124.92,30,7.3,7.3,0,0,1,119.52,28Z"></path><path class="cls-2" d="M142.07,19.2h-2.62v5.56a1.2,1.2,0,0,0,.34,1,2.45,2.45,0,0,0,1.26.23h1v3.62a20.31,20.31,0,0,1-2.1.13,6.81,6.81,0,0,1-4.22-1,4.13,4.13,0,0,1-1.27-3.38V19.2h-2V15.69h2V11.48h5v4.21h2.62Z"></path><path class="cls-2" d="M152.93,29.63a4.17,4.17,0,0,1-.35-1.43A5.37,5.37,0,0,1,148.15,30a5.68,5.68,0,0,1-3.71-1.16A3.89,3.89,0,0,1,143,25.6a3.69,3.69,0,0,1,1.32-3,7.92,7.92,0,0,1,4.24-1.31l2.24-.19a2.74,2.74,0,0,0,1.29-.35.92.92,0,0,0,.39-.81c0-.74-.59-1.1-1.76-1.1a2.72,2.72,0,0,0-1.52.31,1.59,1.59,0,0,0-.56,1.17h-4.91a4.68,4.68,0,0,1,1.9-3.7,8.94,8.94,0,0,1,5.15-1.22q6.55,0,6.56,4.38v7.37a4.28,4.28,0,0,0,.57,2.52Zm-.43-5.49v-.81a1.82,1.82,0,0,1-1.24.54l-1.6.17c-1.06.1-1.59.56-1.59,1.37a1.19,1.19,0,0,0,.47,1,2.12,2.12,0,0,0,1.31.36A2.33,2.33,0,0,0,152.5,24.14Z"></path><path class="cls-1" d="M176.16,15.69h5.32L177,29.63h-5.24l-1.35-4.81c-.32-1.14-.62-2.27-.89-3.4-.31,1.35-.59,2.48-.86,3.4l-1.36,4.81H162l-4.51-13.94h5.32l1.06,3.81c.38,1.37.78,2.9,1.21,4.59.35-1.53.72-3.07,1.14-4.62l1-3.78h4.51l1,3.78c.39,1.55.77,3.09,1.13,4.62.43-1.69.84-3.22,1.22-4.59Z"></path><path class="cls-1" d="M196.42,24.09H186.21A2.6,2.6,0,0,0,189,26.44a2.65,2.65,0,0,0,2.46-1.22h4.65a5.64,5.64,0,0,1-2.52,3.49A8.39,8.39,0,0,1,189,30a7.53,7.53,0,0,1-5.43-2,7,7,0,0,1-2.08-5.29,7,7,0,0,1,2.06-5.3,8.21,8.21,0,0,1,10.83.08,7.85,7.85,0,0,1,2,5.76Zm-10.21-2.94h5.43a2.57,2.57,0,0,0-2.76-2.27A2.5,2.5,0,0,0,186.21,21.15Z"></path><path class="cls-1" d="M211.36,17.34A8.23,8.23,0,0,1,213,22.66,8.25,8.25,0,0,1,211.36,28,5.32,5.32,0,0,1,207,30a4.43,4.43,0,0,1-4-2.05v1.73h-4.83V10.39h5V17.2A4.51,4.51,0,0,1,207,15.36,5.3,5.3,0,0,1,211.36,17.34Zm-5.84,8.72q2.43,0,2.43-3.51,0-3.3-2.43-3.3c-1.62,0-2.43,1.14-2.43,3.41S203.9,26.06,205.52,26.06Z"></path></g></g></svg> 